HIERARCHY
ROOT Hips
{
	OFFSET 0.00000 0.00000 0.00000
	CHANNELS 6 Xposition Yposition Zposition Zrotation Yrotation Xrotation 
	JOINT RightUpLegDummy
	{
		OFFSET 0 0 0
		CHANNELS 3 Zrotation Yrotation Xrotation
		JOINT RightUpLeg
		{
			OFFSET -3.52197 -3.41223 0.04002
			CHANNELS 3 Zrotation Yrotation Xrotation
			JOINT RightLeg
			{
				OFFSET -1.06336 -17.58347 1.60435
				CHANNELS 3 Zrotation Yrotation Xrotation
				JOINT RightFoot
				{
					OFFSET -0.27018 -17.05419 -1.63900
					CHANNELS 3 Zrotation Yrotation Xrotation
					JOINT RightToes
					{
						OFFSET 0.00298 -1.73825 3.34613
						CHANNELS 3 Zrotation Yrotation Xrotation
						End Site
						{
							OFFSET 0.00480 -0.05416 3.85043
						}
					}
				}
			}
		}
	}
	JOINT SpineDummy
	{
		OFFSET 0 0 0
		CHANNELS 3 Zrotation Yrotation Xrotation
		JOINT Spine
		{
			OFFSET 0.00000 4.14613 0.00000
			CHANNELS 3 Zrotation Yrotation Xrotation
			JOINT Spine1
			{
				OFFSET 0.00000 10.93369 0.05002
				CHANNELS 3 Zrotation Yrotation Xrotation
				JOINT HEadDummy
				{
					OFFSET 0 0 0
					CHANNELS 3 Zrotation Yrotation Xrotation
					JOINT Head
					{
						OFFSET 0.00000 5.52901 0.00438
						CHANNELS 3 Zrotation Yrotation Xrotation
						End Site
						{
							OFFSET -0.11417 7.29012 0.98962
						}
					}
				}
				JOINT LeftShoulder1Dummy
				{
					OFFSET 0 0 0
					CHANNELS 3 Zrotation Yrotation Xrotation
					JOINT LeftShoulder1
					{
						OFFSET 3.53937 -0.14262 -0.08662
						CHANNELS 3 Zrotation Yrotation Xrotation
						JOINT LeftArm
						{
							OFFSET 4.04833 -0.00133 0.12681
							CHANNELS 3 Zrotation Yrotation Xrotation
							JOINT LeftForeArm
							{
								OFFSET 9.67557 0.03289 -0.56117
								CHANNELS 3 Zrotation Yrotation Xrotation
								JOINT LeftHand
								{
									OFFSET 10.17679 0.06873 0.40307
									CHANNELS 3 Zrotation Yrotation Xrotation
									End Site
									{
										OFFSET 6.59293 -0.21483 0.59213
									}
								}
							}
						}
					}
				}
				JOINT RightShoulderDummy
				{
					OFFSET 0 0 0
					CHANNELS 3 Zrotation Yrotation Xrotation
					JOINT RightShoulder
					{
						OFFSET -3.53937 -0.14262 -0.08660
						CHANNELS 3 Zrotation Yrotation Xrotation
						JOINT RightArm
						{
							OFFSET -4.04833 -0.00132 0.12683
							CHANNELS 3 Zrotation Yrotation Xrotation
							JOINT RightForeArm
							{
								OFFSET -9.67570 0.03289 -0.56114
								CHANNELS 3 Zrotation Yrotation Xrotation
								JOINT RightHand
								{
									OFFSET -10.17679 0.06867 0.40304
									CHANNELS 3 Zrotation Yrotation Xrotation
									End Site
									{
										OFFSET -6.54841 -0.21495 0.59212
									}
								}
							}
						}
					}
				}
			}
		}
	}
	JOINT LeftUpLegDummy
	{
		OFFSET 0 0 0
		CHANNELS 3 Zrotation Yrotation Xrotation
		JOINT LeftUpLeg
		{
			OFFSET 3.52197 -3.41223 0.04002
			CHANNELS 3 Zrotation Yrotation Xrotation
			JOINT LeftLeg
			{
				OFFSET 1.08359 -17.35354 1.60336
				CHANNELS 3 Zrotation Yrotation Xrotation
				JOINT LeftFoot
				{
					OFFSET 0.24986 -17.28405 -1.63802
					CHANNELS 3 Zrotation Yrotation Xrotation
					JOINT LeftToes
					{
						OFFSET -0.01575 -1.73822 3.34610
						CHANNELS 3 Zrotation Yrotation Xrotation
						End Site
						{
							OFFSET 0.03150 -0.01868 3.85031
						}
					}
				}
			}
		}
	}
}
MOTION
Frames: 12
Frame Time: 0.033333
-54.0615 37.2020 6.6504 -175.0360 -28.8963 179.2190 0.0000 0.0000 0.0000 -13.0843 14.5707 -16.0760 3.0758 4.9489 40.5203 15.1076 1.3986 -19.2218 0.0000 0.0000 -0.0000 0.0000 0.0000 0.0000 -3.8817 -0.3812 1.1254 3.8330 -1.8762 15.3672 0.0000 0.0000 0.0000 -10.6665 30.4225 -8.4821 0.0000 0.0000 0.0000 -11.1889 -0.4201 0.9516 2.6716 -30.2192 -61.4550 -3.7870 -85.0137 12.3705 7.7486 -4.3236 -0.5712 0.0000 0.0000 0.0000 5.9754 3.6270 1.1241 49.3365 60.1915 12.4428 -178.3944 87.3883 -167.0266 -10.2097 8.0813 -1.0709 0.0000 0.0000 0.0000 16.7404 20.0272 -29.8460 -9.5110 -13.7998 36.0579 -1.6054 0.0406 -3.8829 -0.0000 -0.0000 0.0000
-54.3794 37.1387 6.2036 -170.8860 -42.9438 176.6450 0.0000 0.0000 0.0000 -9.0997 11.5285 -11.6412 1.7916 3.3608 42.4668 18.6569 1.4692 -18.1644 0.0000 0.0000 -0.0000 0.0000 0.0000 0.0000 -10.4319 -1.8371 0.7988 15.1392 -6.8155 14.4970 0.0000 0.0000 0.0000 -8.2635 26.7015 -6.4255 0.0000 0.0000 0.0000 -10.4099 -0.1383 0.8663 12.6262 -40.7036 -66.8279 0.3040 -69.9273 5.7861 9.4287 -5.4855 -0.7869 0.0000 0.0000 0.0000 8.4453 3.8172 1.3314 36.4089 41.4618 0.8937 178.8999 80.3075 -171.2136 -9.7183 7.6846 -0.9848 0.0000 0.0000 0.0000 17.1848 12.5063 -35.4944 -13.8515 -18.7379 36.9893 -2.1144 0.1136 -2.6743 -0.0000 -0.0000 0.0000
-54.7668 37.3981 5.4691 -163.8400 -60.6447 171.8710 0.0000 0.0000 0.0000 -4.7183 4.8081 -5.9387 2.3850 4.3321 40.3594 19.5765 1.2133 -16.4621 0.0000 0.0000 -0.0000 0.0000 0.0000 0.0000 -15.2074 -2.9231 1.1891 23.7962 -9.9655 11.0768 0.0000 0.0000 0.0000 -5.2580 20.2913 -6.2639 0.0000 0.0000 0.0000 -8.9963 -0.3801 0.8531 26.8497 -51.5627 -77.3827 0.2804 -61.1366 6.4952 9.6389 -6.4113 -0.8767 0.0000 0.0000 0.0000 9.1084 2.9491 1.2330 33.3959 18.0926 -7.9520 179.7014 68.8024 -171.9804 -9.4534 7.5882 -0.9497 0.0000 0.0000 0.0000 15.6418 5.1752 -40.9681 -18.3135 -26.8856 34.8996 -3.1811 0.3268 0.5207 -0.0000 -0.0000 0.0000
-55.3590 37.7889 4.7645 -145.9760 -76.5701 156.5760 0.0000 0.0000 0.0000 -1.5985 -0.2839 -0.5508 4.0094 7.4877 34.3480 15.7562 0.7467 -14.6605 0.0000 0.0000 -0.0000 0.0000 0.0000 0.0000 -15.5710 -3.3997 0.6325 23.8952 -9.8376 7.8759 0.0000 0.0000 0.0000 -0.5254 13.8939 -6.8568 0.0000 0.0000 0.0000 -4.6005 0.9044 0.4958 43.0133 -59.6491 -92.4926 0.1792 -61.4492 9.3791 8.7167 -7.3736 -0.8564 0.0000 0.0000 0.0000 6.7675 1.6881 0.8792 36.2987 5.8043 -18.0842 179.8574 60.0358 -173.3721 -9.7592 7.1406 -0.9433 0.0000 0.0000 0.0000 11.1979 0.2402 -44.7017 -21.6296 -36.5511 31.8841 -3.9430 0.6416 5.4375 -0.0000 -0.0000 0.0000
-55.8955 38.0220 4.4310 -104.3610 -84.7438 117.1890 0.0000 0.0000 0.0000 0.2419 1.3594 3.4288 4.2259 10.1251 27.5115 8.1764 0.4006 -13.6239 0.0000 0.0000 -0.0000 0.0000 0.0000 0.0000 -9.7147 -1.2602 -1.0200 14.1523 -5.0639 5.7033 0.0000 0.0000 0.0000 4.9679 6.6294 -5.8535 0.0000 0.0000 0.0000 -0.7638 2.4982 0.1937 59.6494 -65.0960 -109.8059 0.3460 -66.7351 11.0241 8.1294 -7.3075 -0.7901 0.0000 0.0000 0.0000 3.7675 1.0725 0.6342 30.3565 10.0343 -29.7483 -179.5203 60.1008 -171.3434 -10.2116 4.5280 -0.7821 0.0000 0.0000 0.0000 6.4253 -2.5364 -46.5301 -22.4003 -42.0446 29.7221 -3.5631 0.7741 9.4908 -0.0000 -0.0000 0.0000
-56.1107 38.0652 4.5796 -73.0862 -85.2543 86.6701 0.0000 0.0000 0.0000 0.4757 6.6298 6.2567 3.9468 12.0902 22.4758 1.9115 0.2462 -13.2891 0.0000 0.0000 -0.0000 0.0000 0.0000 0.0000 2.9428 4.7034 0.1929 -1.8254 4.2455 2.4794 0.0000 0.0000 0.0000 6.5284 -1.9103 -2.9892 0.0000 0.0000 0.0000 -1.5198 1.1943 0.3672 70.4154 -69.4325 -120.9807 0.3044 -72.0789 9.4588 8.0533 -5.2951 -0.6555 0.0000 0.0000 0.0000 1.1231 0.7060 0.4685 9.6073 19.2053 -40.3395 176.2137 73.6110 -167.2496 -8.3596 1.9757 -0.4610 0.0000 0.0000 0.0000 4.4842 -3.8530 -47.1048 -21.0005 -40.6698 28.7108 -1.6074 0.4724 10.9544 -0.0000 -0.0000 0.0000
-56.1313 38.0164 4.9692 -92.8032 -85.1950 105.5200 0.0000 0.0000 0.0000 -1.0772 8.2724 8.4948 4.8834 15.8617 19.7379 -0.3056 0.2017 -13.2019 0.0000 0.0000 -0.0000 0.0000 0.0000 0.0000 18.5230 10.7004 5.4455 -18.6757 13.8874 0.5425 0.0000 0.0000 0.0000 3.0086 -8.1283 0.7095 0.0000 0.0000 0.0000 -4.2429 -1.6340 0.8085 69.7701 -74.0639 -120.1545 -0.3525 -76.1331 6.1097 7.4575 -3.1752 -0.4809 0.0000 0.0000 0.0000 -2.2845 0.2465 0.2774 -15.2382 26.3368 -47.8375 6.9755 76.3950 32.4204 -5.7795 3.7929 -0.3831 0.0000 0.0000 0.0000 3.6101 -2.9409 -46.7033 -20.5459 -37.9183 29.6889 0.5546 0.0513 10.6595 -0.0000 -0.0000 0.0000
-56.2206 37.9404 5.1819 -97.5578 -85.8351 109.4670 0.0000 0.0000 0.0000 -2.8612 6.0536 10.0993 5.2930 18.0752 18.4537 -0.9100 0.1918 -13.5094 0.0000 0.0000 -0.0000 0.0000 0.0000 0.0000 29.9616 12.7069 9.6482 -31.7149 20.1867 2.2797 0.0000 0.0000 0.0000 -0.0409 -9.8529 2.4491 0.0000 0.0000 0.0000 -5.0469 -2.5843 0.9879 64.2354 -77.7348 -113.5407 -1.3888 -80.1931 4.3229 7.0256 -2.9264 -0.4377 0.0000 0.0000 0.0000 -5.8554 0.2361 0.1291 -36.3477 33.2590 -55.7974 -2.6072 27.5780 25.0889 -3.7961 5.8797 -0.3181 0.0000 0.0000 0.0000 1.5178 -1.3686 -46.1665 -21.8476 -38.1243 31.2273 1.0924 -0.0546 10.1199 -0.0000 -0.0000 0.0000
-56.4600 37.8613 5.0326 -54.5883 -86.7692 66.9658 0.0000 0.0000 0.0000 -2.5645 5.2912 10.8296 3.3527 13.7112 18.1659 -2.1742 0.1619 -14.2534 0.0000 0.0000 -0.0000 0.0000 0.0000 0.0000 32.8728 12.0905 9.8737 -38.4963 22.0148 4.4014 0.0000 0.0000 0.0000 1.3463 -9.7139 0.6615 0.0000 0.0000 0.0000 -4.5853 -2.0501 0.8872 58.9791 -79.9384 -106.2544 -2.5025 -84.7086 5.4901 8.0646 -3.6520 -0.5543 0.0000 0.0000 0.0000 -7.7978 0.4933 0.0580 -49.5540 36.3203 -67.2449 0.7055 -3.2771 30.6775 3.7697 -0.1905 0.0722 0.0000 0.0000 0.0000 -1.4216 -1.2728 -46.3603 -23.4121 -40.3838 31.8816 -0.0622 0.1528 9.7111 -0.0000 -0.0000 0.0000
-56.7124 37.7747 4.7318 -6.9661 -84.3264 20.2516 0.0000 0.0000 0.0000 -0.6211 5.9314 10.2970 1.0925 7.4255 19.7022 -3.1036 0.1324 -14.5716 0.0000 0.0000 -0.0000 0.0000 0.0000 0.0000 29.5846 10.9762 8.5728 -38.5301 20.3480 4.4073 0.0000 0.0000 0.0000 4.2351 -10.2162 -1.7772 0.0000 0.0000 0.0000 -4.6773 -1.8904 0.8712 47.1826 -81.3282 -93.0963 -3.8321 -87.7649 8.6631 10.1251 -3.6418 -0.6934 0.0000 0.0000 0.0000 -7.8212 0.5049 0.0568 -52.8096 36.6776 -69.5736 0.4267 -5.8940 33.7444 13.7695 -7.7271 -0.4069 0.0000 0.0000 0.0000 -3.1023 -2.5772 -46.9547 -24.2201 -41.9167 32.0336 -1.2883 0.3637 9.2605 -0.0000 -0.0000 0.0000
-56.8196 37.7481 4.5726 -7.1533 -82.8262 20.4199 0.0000 0.0000 0.0000 0.4452 5.7634 9.1211 1.1237 6.5328 22.4952 -2.5336 0.1528 -13.8299 0.0000 0.0000 -0.0000 0.0000 0.0000 0.0000 25.3650 10.1786 8.2455 -34.5711 18.1564 3.7442 0.0000 0.0000 0.0000 5.1094 -11.3307 -2.4610 0.0000 0.0000 0.0000 -5.3693 -2.4701 0.9927 32.3240 -81.2181 -78.1931 -3.1518 -88.0129 9.6064 12.0137 -2.0975 -0.6861 0.0000 0.0000 0.0000 -7.2043 0.3743 0.0794 -52.2098 37.4418 -68.2991 1.0656 -4.6649 36.4002 16.8026 -9.6682 -0.8264 0.0000 0.0000 0.0000 -2.2695 -3.9742 -47.0333 -23.7636 -41.1403 31.9001 -1.5742 0.4009 8.7886 -0.0000 -0.0000 0.0000
-56.7923 37.8484 4.6143 -22.6977 -84.6204 35.1903 0.0000 0.0000 0.0000 -0.0771 6.8620 7.9307 3.2844 9.5843 25.1044 -1.9829 0.1727 -12.2309 0.0000 0.0000 -0.0000 0.0000 0.0000 0.0000 23.1857 10.0441 8.1106 -31.4112 17.7446 5.0517 0.0000 0.0000 0.0000 5.5100 -12.0551 -2.4976 0.0000 0.0000 0.0000 -5.6017 -2.7201 1.0433 31.3686 -79.7693 -77.6609 -1.3677 -86.5691 8.1973 13.2804 -2.5518 -0.8068 0.0000 0.0000 0.0000 -6.9735 0.3033 0.0867 -53.3461 39.1849 -69.8408 1.4265 -2.6693 36.0122 8.9026 -3.8916 -0.0530 0.0000 0.0000 0.0000 -0.0811 -4.1804 -46.2504 -21.9868 -38.8949 30.9544 -1.6095 0.3863 8.1012 -0.0000 -0.0000 0.0000
